<svg width="97" height="71" viewBox="0 0 97 71" fill="none" xmlns="http://www.w3.org/2000/svg">
<path d="M48.5 66.443C24.2699 66.443 4.55705 46.7301 4.55705 22.5C4.55705 -1.73014 24.2699 -21.4429 48.5 -21.4429C72.7301 -21.4429 92.4429 -1.73014 92.4429 22.5C92.4429 46.7301 72.7301 66.443 48.5 66.443ZM48.5 -26C21.757 -26 0 -4.24303 0 22.5C0 49.243 21.757 71 48.5 71C75.243 71 97 49.243 97 22.5C97 -4.24303 75.243 -26 48.5 -26Z" fill="#201A23"/>
<path d="M86.9255 14.6418C84.219 1.41533 74.6488 -9.68987 61.95 -14.3397C60.7665 -14.7733 59.4592 -14.1652 59.027 -12.9836C58.5944 -11.8017 59.2014 -10.4932 60.383 -10.0606C71.609 -5.94984 80.0691 3.86572 82.4613 15.5555C82.6819 16.6342 83.6314 17.3777 84.6913 17.3777C84.8426 17.3777 84.9959 17.3624 85.1502 17.3308C86.3829 17.0785 87.1778 15.8748 86.9255 14.6418Z" fill="#201A23"/>
<path d="M73.8834 15.1193C73.9219 16.9493 73.7132 18.748 73.2621 20.4722C72.9688 21.6187 72.5665 22.7364 72.0603 23.807C71.63 23.2563 71.1746 22.7267 70.7 22.2228C70.756 22.0952 70.8091 21.9692 70.8621 21.8361C70.8621 21.8361 70.8605 21.8332 70.8634 21.8315C71.752 19.6542 72.1951 17.2953 72.1397 14.8687C72.0483 10.5558 70.2827 6.53743 67.1644 3.55061C64.0477 0.566719 59.9558 -1.02434 55.6426 -0.932549C51.9904 -0.856052 48.5694 0.516918 45.898 2.95234C45.6464 3.18409 45.4012 3.42692 45.162 3.67397C44.0224 4.86337 43.1006 6.2116 42.417 7.66237C41.9242 8.70333 41.5606 9.8032 41.3204 10.932C41.1023 10.7657 40.8833 10.6039 40.6541 10.4516C40.9666 8.98228 41.4877 7.5875 42.1775 6.29688C43.0335 4.68759 44.1611 3.24073 45.5051 2.024C48.2481 -0.484329 51.8742 -2.04414 55.8743 -2.13073C60.5817 -2.23521 65.0509 -0.498978 68.4531 2.76614C71.8585 6.01825 73.7832 10.406 73.8834 15.1193ZM77.8904 27.5399C77.784 28.1896 77.434 28.7618 76.9002 29.1488C76.4429 29.4789 75.8973 29.6423 75.3427 29.6133C75.175 29.1742 74.9898 28.7374 74.7932 28.3068C75.4696 27.2277 76.0555 26.1057 76.5506 24.9407C76.9028 25.1146 77.212 25.3717 77.4497 25.7018C77.5112 25.7864 77.5655 25.8717 77.616 25.9628C77.88 26.442 77.9747 26.9917 77.8904 27.5399ZM67.0095 19.0944C65.6616 18.1872 64.2092 17.4265 62.6702 16.8328C62.0032 16.573 61.3158 16.3543 60.6185 16.1577C61.3161 16.3543 62.0032 16.5724 62.6705 16.8318C63.687 14.3157 63.1815 11.3161 61.1504 9.26482C59.8318 7.93026 58.0711 7.19072 56.1953 7.1764C54.3187 7.16663 52.5929 7.85442 51.2606 9.17564C49.359 11.0544 48.7975 13.7291 49.5088 16.1261C48.4473 16.4252 47.4171 16.8074 46.4233 17.2696C46.1092 16.5919 45.7447 15.9305 45.3316 15.2957C45.4878 14.9794 45.5725 14.6203 45.5633 14.2463C45.5207 12.2406 46.0464 10.3152 47.0616 8.64409C47.4496 7.99927 47.9161 7.38894 48.4515 6.83006C50.3743 4.82235 52.9637 3.68114 55.7412 3.6219C58.8387 3.55712 61.7721 4.69834 64.0116 6.84601C66.2478 8.98815 67.5159 11.8685 67.5853 14.9673C67.6175 16.3878 67.4196 17.7754 67.0095 19.0944ZM58.1857 15.5861C56.7799 15.3615 55.4007 15.3387 54.0007 15.3387H53.9994C53.492 14.3622 53.6222 13.2129 54.4235 12.4235C54.4981 12.3496 54.5752 12.2936 54.6553 12.2318C55.0886 11.8985 55.6149 11.725 56.1689 11.7295C56.828 11.7318 57.4494 11.9844 57.9129 12.4531C58.7596 13.3128 58.8504 14.6307 58.1857 15.5861ZM71.5017 32.4553C71.5623 32.6601 71.6199 32.8661 71.6749 33.0734C72.4164 35.9021 72.4343 38.8879 71.7006 41.8051C70.4292 46.8621 67.2627 51.1236 62.7926 53.796C58.3182 56.4742 53.0698 57.2489 48.0157 55.9762C41.8197 54.4183 36.9229 50.3085 34.1678 45.0477C33.7069 44.1643 33.3059 43.248 32.9667 42.3089C32.6353 41.3914 32.3674 40.4464 32.1624 39.4813C32.0494 38.9527 31.958 38.4159 31.8867 37.8753C31.5306 35.2468 31.6627 32.5129 32.3473 29.7901C32.6581 28.5668 31.9179 27.3322 30.6963 27.0243C29.4747 26.7164 28.2371 27.4582 27.9321 28.6782C27.6014 29.9864 27.3762 31.304 27.2551 32.6083C22.4057 31.1741 19.3141 26.2665 20.2548 21.1835C21.1047 16.5893 24.6667 13.1728 28.9777 12.2754C29.8503 12.0918 30.7549 12.0134 31.667 12.0495C32.2024 12.0703 32.7395 12.1273 33.2824 12.2295C34.1398 12.3887 34.9724 12.6318 35.7605 12.956C37.6136 13.7148 39.2541 14.9104 40.549 16.464C40.8016 16.767 41.0444 17.0867 41.2703 17.4154C41.7595 18.1273 42.1667 18.8727 42.4968 19.6536C42.2605 19.832 42.0264 20.0208 41.8025 20.2148C40.5861 21.2381 39.4911 22.4067 38.5348 23.6996C37.9446 24.4968 37.4075 25.3431 36.9378 26.2301C36.1752 27.6652 35.5756 29.2074 35.1635 30.8467C35.1371 30.9469 35.1105 31.0472 35.0896 31.1442C34.6229 33.1298 34.4806 35.1371 34.6548 37.1113C34.7892 38.6431 35.1118 40.1525 35.6192 41.6124C36.0427 42.8324 36.5944 44.0221 37.2741 45.1604C39.8648 49.4896 43.9899 52.5568 48.8864 53.7865C53.409 54.9245 58.106 54.2347 62.111 51.8377C66.1127 49.442 68.9478 45.6307 70.0845 41.1052C70.7062 38.6327 70.7388 36.1022 70.2 33.6821C69.8433 32.0911 69.2483 30.5459 68.4117 29.0964C68.371 29.0222 68.3258 28.9467 68.2822 28.8741C67.9651 28.3465 67.6214 27.8446 67.2555 27.3625C66.3233 26.137 65.2325 25.0618 64.0122 24.1625C62.3411 22.9314 60.431 22.0219 58.356 21.5005C57.8202 21.3648 57.2798 21.2612 56.7379 21.1883C56.0507 21.0874 55.3626 21.0393 54.6752 21.0467C52.3397 21.0445 50.041 21.5942 47.9311 22.6681C47.627 22.8243 47.323 22.988 47.0271 23.1661C46.3517 23.572 45.7098 24.0261 45.1122 24.5267C44.4635 25.0625 43.903 25.7174 43.3616 26.3541C42.9151 26.8788 42.3737 27.218 42.169 28.0744L42.1661 28.076C41.6449 28.7348 41.241 29.5596 40.9028 30.389C40.6362 31.0452 40.4002 31.6956 40.2228 32.3918C40.1499 32.6848 40.1261 32.9582 40.1632 33.2349C40.2824 34.132 40.9308 34.8969 41.8611 35.1349C43.084 35.4385 44.3173 34.6954 44.6223 33.4754C44.6793 33.2619 44.7375 33.0438 44.8049 32.8358C45.0608 32.0256 45.4146 31.2584 45.8508 30.5459C45.8521 30.5414 45.8563 30.5355 45.8602 30.5293C46.3309 29.7719 46.8976 29.0805 47.5476 28.4656C48.0694 27.9627 48.6589 27.5151 49.293 27.1281C49.3187 27.1141 49.3428 27.0972 49.3685 27.0829C51.7541 25.6526 54.5495 25.2418 57.2473 25.9215C58.2228 26.1679 59.1525 26.5325 60.015 27.0051C61.4495 27.7938 62.7024 28.8797 63.6926 30.211C63.9357 30.5306 64.162 30.8665 64.3696 31.2168C64.5321 31.484 64.6802 31.7594 64.8179 32.0364C65.5375 33.4832 65.935 35.0408 66.0076 36.6289C66.0554 37.7473 65.9464 38.8778 65.6635 39.9962C64.826 43.3385 62.7291 46.1557 59.7683 47.9255C56.8121 49.6962 53.3406 50.2086 49.9996 49.3665C46.2821 48.4349 43.151 46.1059 41.1834 42.8197C40.5665 41.7881 40.0858 40.7 39.7495 39.5773C39.2772 38.0126 39.0777 36.3832 39.1649 34.7478C39.1724 34.5727 39.1828 34.396 39.2004 34.2192C39.2678 33.4647 39.3934 32.7079 39.5819 31.9573C39.7678 31.223 40.0015 30.514 40.2788 29.8373C40.6248 28.9812 41.0421 28.1675 41.5186 27.4071C42.0811 26.5058 42.7354 25.6695 43.458 24.9108C43.7835 24.5641 44.123 24.2357 44.4791 23.9242C45.4849 23.0317 46.6024 22.2742 47.796 21.6685C49.2493 20.9266 50.8179 20.4078 52.4503 20.1321C54.5358 19.7893 56.7197 19.8603 58.8976 20.4065C59.0213 20.4351 59.1391 20.4667 59.2586 20.5012C61.3014 21.0588 63.1968 21.9617 64.8781 23.1645C66.1143 24.0518 67.2344 25.0957 68.2102 26.286C68.2913 26.3863 68.3912 26.4765 68.4524 26.5875L68.454 26.5904C68.7213 27.0747 69.1207 27.4865 69.4257 27.965C69.5324 28.1255 69.633 28.2892 69.7316 28.4545C70.495 29.7247 71.0831 31.0693 71.5017 32.4553ZM29.3617 45.5598C29.6856 46.2993 30.0446 47.0229 30.4362 47.7283C30.0446 47.0226 29.6853 46.2986 29.3614 45.5591C29.1869 45.8966 28.9363 46.1903 28.6206 46.4201C28.0867 46.8071 27.4322 46.9614 26.7844 46.8579C26.1334 46.7556 25.5582 46.4002 25.1709 45.8664C24.7839 45.3326 24.6263 44.6763 24.7285 44.0253C24.8333 43.3727 25.1771 42.7894 25.7109 42.402C25.7871 42.3467 25.8548 42.2813 25.9332 42.2315L26.0074 42.2458C26.1061 42.2699 26.2014 42.2878 26.2971 42.3057C26.9472 42.4268 27.6004 42.5127 28.2521 42.5625C28.56 43.5859 28.9291 44.5865 29.3617 45.5598ZM23.1228 41.4428C23.7009 41.6537 24.2963 41.837 24.9033 41.9942C24.1101 41.8051 23.322 41.5362 22.559 41.2221C22.7465 41.2966 22.9321 41.3741 23.1228 41.4428ZM71.6059 -0.529247C67.3197 -4.62994 61.7015 -6.8183 55.7773 -6.68972C50.9094 -6.58621 46.4702 -4.78195 43.0182 -1.8534C41.8415 -0.866474 40.7837 0.255543 39.8569 1.48008C38.3287 3.51578 37.1647 5.84085 36.4737 8.36285C35.71 8.10342 34.921 7.89933 34.1108 7.75123C25.5797 6.16505 17.3529 11.8259 15.7739 20.3567C14.3254 28.1873 19.4583 35.739 27.2408 37.2955C27.245 37.3304 27.245 37.3639 27.2492 37.3987C27.2583 37.5498 27.2733 37.705 27.2925 37.8544C27.2369 37.8479 27.1854 37.8356 27.1281 37.8261C26.6848 37.7431 26.2512 37.6442 25.8251 37.5257C18.2279 35.4285 13.3574 27.8068 14.8153 19.9189C15.6437 15.4481 18.1641 11.5648 21.9139 8.98847C25.6611 6.41374 30.1911 5.44797 34.6648 6.27508C35.8992 6.50521 37.0902 5.68526 37.3174 4.45226C37.5472 3.21046 36.7305 2.0253 35.4916 1.79387C29.8217 0.745419 24.0824 1.96508 19.3317 5.23444C14.578 8.49794 11.3855 13.4205 10.337 19.0905C8.66754 28.0913 13.3597 36.8187 21.2229 40.6388C21.2232 40.6391 21.2235 40.6394 21.2238 40.6394C20.7186 41.4382 20.3876 42.3601 20.2363 43.32C19.9407 45.1705 20.3853 47.0291 21.4865 48.5479C22.5877 50.067 24.2159 51.065 26.0676 51.3635C27.6278 51.6112 29.1886 51.3345 30.5511 50.5832C30.808 50.442 31.0566 50.2864 31.2972 50.109C31.4372 50.0058 31.5758 49.8997 31.7067 49.7864C35.1821 54.8844 40.4637 58.7749 46.9025 60.3955C53.1381 61.9648 59.6134 61.0085 65.1307 57.7069C65.9587 57.2134 66.7487 56.6776 67.4987 56.0969C71.767 52.8149 74.7874 48.2211 76.1203 42.9183C76.8589 39.9839 76.9897 36.9977 76.535 34.0965C77.3357 33.9712 78.1117 33.7069 78.8301 33.3107C79.0869 33.1695 79.3356 33.0139 79.5762 32.8365C80.0094 32.5233 80.3971 32.1682 80.7411 31.7744C81.605 30.7926 82.1799 29.5837 82.3888 28.2566C82.6831 26.4036 82.2398 24.5479 81.137 23.0258C80.3167 21.8947 79.2018 21.0523 77.9223 20.5718C78.3074 18.7689 78.4835 16.9102 78.4408 15.0194C78.3106 9.09231 75.8846 3.57209 71.6059 -0.529247Z" fill="#201A23"/>
<path d="M54.6565 41.5388C51.9972 41.5388 49.8326 39.3742 49.8326 36.7181C49.8326 34.0587 51.9972 31.8941 54.6565 31.8941C57.3126 31.8941 59.4772 34.0587 59.4772 36.7181C59.4772 39.3742 57.3126 41.5388 54.6565 41.5388ZM54.6565 27.3371C49.4843 27.3371 45.2755 31.5458 45.2755 36.7181C45.2755 41.8871 49.4843 46.0958 54.6565 46.0958C59.8255 46.0958 64.0343 41.8871 64.0343 36.7181C64.0343 31.5458 59.8255 27.3371 54.6565 27.3371Z" fill="#201A23"/>
</svg>
